<?xml version="1.0"?>
<svg xmlns="http://www.w3.org/2000/svg" viewBox="0 0 16 20" enable-background="new 0 0 16 16" x="0px" y="0px">
  <g>
    <path d="M10.001 16l-.143-.01c-.547-.078-.926-.585-.849-1.132l2-14c.078-.546.588-.926 1.132-.848.547.078.927.584.849 1.131l-2 14c-.071.5-.499.859-.989.859zM4.001 16l-.143-.01c-.546-.078-.926-.585-.848-1.132l2-14c.078-.547.58-.927 1.132-.848.546.078.926.585.848 1.132l-2 14c-.072.499-.499.858-.989.858zM15 6h-13c-.552 0-1-.448-1-1s.448-1 1-1h13c.553 0 1 .448 1 1s-.447 1-1 1zM14 12h-13c-.552 0-1-.447-1-1s.448-1 1-1h13c.553 0 1 .447 1 1s-.447 1-1 1z"/>
  </g>
</svg>